<svg width="25" height="24" viewBox="0 0 25 24" fill="none" xmlns="http://www.w3.org/2000/svg">
<path d="M11.9062 1.72188C11.9062 0.770912 11.1353 0 10.1844 0H7.92819C6.97722 0 6.20631 0.770912 6.20631 1.72188C6.20631 2.67285 6.97722 3.44376 7.92819 3.44376H10.1844C11.1353 3.44376 11.9062 2.67285 11.9062 1.72188Z" fill="#FF0000" style="mix-blend-mode:saturation"/>
<path d="M11.9062 1.72188C11.9062 0.770912 11.1353 0 10.1844 0H7.92819C6.97722 0 6.20631 0.770912 6.20631 1.72188C6.20631 2.67285 6.97722 3.44376 7.92819 3.44376H10.1844C11.1353 3.44376 11.9062 2.67285 11.9062 1.72188Z" fill="white" style="mix-blend-mode:difference"/>
<path d="M11.9062 1.72188C11.9062 0.770912 11.1353 0 10.1844 0H7.92819C6.97722 0 6.20631 0.770912 6.20631 1.72188C6.20631 2.67285 6.97722 3.44376 7.92819 3.44376H10.1844C11.1353 3.44376 11.9062 2.67285 11.9062 1.72188Z" fill="white" style="mix-blend-mode:saturation"/>
<path d="M11.9062 1.72188C11.9062 0.770912 11.1353 0 10.1844 0H7.92819C6.97722 0 6.20631 0.770912 6.20631 1.72188C6.20631 2.67285 6.97722 3.44376 7.92819 3.44376H10.1844C11.1353 3.44376 11.9062 2.67285 11.9062 1.72188Z" fill="white" style="mix-blend-mode:overlay"/>
<path d="M11.9062 1.72188C11.9062 0.770912 11.1353 0 10.1844 0H7.92819C6.97722 0 6.20631 0.770912 6.20631 1.72188C6.20631 2.67285 6.97722 3.44376 7.92819 3.44376H10.1844C11.1353 3.44376 11.9062 2.67285 11.9062 1.72188Z" fill="black" style="mix-blend-mode:overlay"/>
<path d="M11.9062 1.72188C11.9062 0.770912 11.1353 0 10.1844 0H7.92819C6.97722 0 6.20631 0.770912 6.20631 1.72188C6.20631 2.67285 6.97722 3.44376 7.92819 3.44376H10.1844C11.1353 3.44376 11.9062 2.67285 11.9062 1.72188Z" fill="white" style="mix-blend-mode:overlay"/>
<path d="M11.9062 1.72188C11.9062 0.770912 11.1353 0 10.1844 0H7.92819C6.97722 0 6.20631 0.770912 6.20631 1.72188C6.20631 2.67285 6.97722 3.44376 7.92819 3.44376H10.1844C11.1353 3.44376 11.9062 2.67285 11.9062 1.72188Z" fill="black" style="mix-blend-mode:overlay"/>
<path d="M18.7891 1.72188C18.7891 0.770912 18.0182 0 17.0672 0C16.1162 0 15.3453 0.770912 15.3453 1.72188C15.3453 2.67285 16.1162 3.44376 17.0672 3.44376C18.0182 3.44376 18.7891 2.67285 18.7891 1.72188Z" fill="#FF0000" style="mix-blend-mode:saturation"/>
<path d="M18.7891 1.72188C18.7891 0.770912 18.0182 0 17.0672 0C16.1162 0 15.3453 0.770912 15.3453 1.72188C15.3453 2.67285 16.1162 3.44376 17.0672 3.44376C18.0182 3.44376 18.7891 2.67285 18.7891 1.72188Z" fill="white" style="mix-blend-mode:difference"/>
<path d="M18.7891 1.72188C18.7891 0.770912 18.0182 0 17.0672 0C16.1162 0 15.3453 0.770912 15.3453 1.72188C15.3453 2.67285 16.1162 3.44376 17.0672 3.44376C18.0182 3.44376 18.7891 2.67285 18.7891 1.72188Z" fill="white" style="mix-blend-mode:saturation"/>
<path d="M18.7891 1.72188C18.7891 0.770912 18.0182 0 17.0672 0C16.1162 0 15.3453 0.770912 15.3453 1.72188C15.3453 2.67285 16.1162 3.44376 17.0672 3.44376C18.0182 3.44376 18.7891 2.67285 18.7891 1.72188Z" fill="white" style="mix-blend-mode:overlay"/>
<path d="M18.7891 1.72188C18.7891 0.770912 18.0182 0 17.0672 0C16.1162 0 15.3453 0.770912 15.3453 1.72188C15.3453 2.67285 16.1162 3.44376 17.0672 3.44376C18.0182 3.44376 18.7891 2.67285 18.7891 1.72188Z" fill="black" style="mix-blend-mode:overlay"/>
<path d="M18.7891 1.72188C18.7891 0.770912 18.0182 0 17.0672 0C16.1162 0 15.3453 0.770912 15.3453 1.72188C15.3453 2.67285 16.1162 3.44376 17.0672 3.44376C18.0182 3.44376 18.7891 2.67285 18.7891 1.72188Z" fill="white" style="mix-blend-mode:overlay"/>
<path d="M18.7891 1.72188C18.7891 0.770912 18.0182 0 17.0672 0C16.1162 0 15.3453 0.770912 15.3453 1.72188C15.3453 2.67285 16.1162 3.44376 17.0672 3.44376C18.0182 3.44376 18.7891 2.67285 18.7891 1.72188Z" fill="black" style="mix-blend-mode:overlay"/>
<path d="M14.6681 8.27266C14.6681 7.32169 13.8972 6.55078 12.9463 6.55078H1.72188C0.77091 6.55078 0 7.32169 0 8.27266C0 9.22363 0.770912 9.99454 1.72188 9.99454H12.9463C13.8972 9.99454 14.6681 9.22363 14.6681 8.27266Z" fill="#FF0000" style="mix-blend-mode:saturation"/>
<path d="M14.6681 8.27266C14.6681 7.32169 13.8972 6.55078 12.9463 6.55078H1.72188C0.77091 6.55078 0 7.32169 0 8.27266C0 9.22363 0.770912 9.99454 1.72188 9.99454H12.9463C13.8972 9.99454 14.6681 9.22363 14.6681 8.27266Z" fill="white" style="mix-blend-mode:difference"/>
<path d="M14.6681 8.27266C14.6681 7.32169 13.8972 6.55078 12.9463 6.55078H1.72188C0.77091 6.55078 0 7.32169 0 8.27266C0 9.22363 0.770912 9.99454 1.72188 9.99454H12.9463C13.8972 9.99454 14.6681 9.22363 14.6681 8.27266Z" fill="white" style="mix-blend-mode:saturation"/>
<path d="M14.6681 8.27266C14.6681 7.32169 13.8972 6.55078 12.9463 6.55078H1.72188C0.77091 6.55078 0 7.32169 0 8.27266C0 9.22363 0.770912 9.99454 1.72188 9.99454H12.9463C13.8972 9.99454 14.6681 9.22363 14.6681 8.27266Z" fill="white" style="mix-blend-mode:overlay"/>
<path d="M14.6681 8.27266C14.6681 7.32169 13.8972 6.55078 12.9463 6.55078H1.72188C0.77091 6.55078 0 7.32169 0 8.27266C0 9.22363 0.770912 9.99454 1.72188 9.99454H12.9463C13.8972 9.99454 14.6681 9.22363 14.6681 8.27266Z" fill="black" style="mix-blend-mode:overlay"/>
<path d="M14.6681 8.27266C14.6681 7.32169 13.8972 6.55078 12.9463 6.55078H1.72188C0.77091 6.55078 0 7.32169 0 8.27266C0 9.22363 0.770912 9.99454 1.72188 9.99454H12.9463C13.8972 9.99454 14.6681 9.22363 14.6681 8.27266Z" fill="white" style="mix-blend-mode:overlay"/>
<path d="M14.6681 8.27266C14.6681 7.32169 13.8972 6.55078 12.9463 6.55078H1.72188C0.77091 6.55078 0 7.32169 0 8.27266C0 9.22363 0.770912 9.99454 1.72188 9.99454H12.9463C13.8972 9.99454 14.6681 9.22363 14.6681 8.27266Z" fill="black" style="mix-blend-mode:overlay"/>
<path d="M10.332 14.8127C10.332 13.8617 11.1029 13.0908 12.0539 13.0908H23.2783C24.2293 13.0908 25.0002 13.8617 25.0002 14.8127C25.0002 15.7637 24.2293 16.5346 23.2783 16.5346H12.0539C11.1029 16.5346 10.332 15.7637 10.332 14.8127Z" fill="#FF0000" style="mix-blend-mode:saturation"/>
<path d="M10.332 14.8127C10.332 13.8617 11.1029 13.0908 12.0539 13.0908H23.2783C24.2293 13.0908 25.0002 13.8617 25.0002 14.8127C25.0002 15.7637 24.2293 16.5346 23.2783 16.5346H12.0539C11.1029 16.5346 10.332 15.7637 10.332 14.8127Z" fill="white" style="mix-blend-mode:difference"/>
<path d="M10.332 14.8127C10.332 13.8617 11.1029 13.0908 12.0539 13.0908H23.2783C24.2293 13.0908 25.0002 13.8617 25.0002 14.8127C25.0002 15.7637 24.2293 16.5346 23.2783 16.5346H12.0539C11.1029 16.5346 10.332 15.7637 10.332 14.8127Z" fill="white" style="mix-blend-mode:saturation"/>
<path d="M10.332 14.8127C10.332 13.8617 11.1029 13.0908 12.0539 13.0908H23.2783C24.2293 13.0908 25.0002 13.8617 25.0002 14.8127C25.0002 15.7637 24.2293 16.5346 23.2783 16.5346H12.0539C11.1029 16.5346 10.332 15.7637 10.332 14.8127Z" fill="white" style="mix-blend-mode:overlay"/>
<path d="M10.332 14.8127C10.332 13.8617 11.1029 13.0908 12.0539 13.0908H23.2783C24.2293 13.0908 25.0002 13.8617 25.0002 14.8127C25.0002 15.7637 24.2293 16.5346 23.2783 16.5346H12.0539C11.1029 16.5346 10.332 15.7637 10.332 14.8127Z" fill="black" style="mix-blend-mode:overlay"/>
<path d="M10.332 14.8127C10.332 13.8617 11.1029 13.0908 12.0539 13.0908H23.2783C24.2293 13.0908 25.0002 13.8617 25.0002 14.8127C25.0002 15.7637 24.2293 16.5346 23.2783 16.5346H12.0539C11.1029 16.5346 10.332 15.7637 10.332 14.8127Z" fill="white" style="mix-blend-mode:overlay"/>
<path d="M10.332 14.8127C10.332 13.8617 11.1029 13.0908 12.0539 13.0908H23.2783C24.2293 13.0908 25.0002 13.8617 25.0002 14.8127C25.0002 15.7637 24.2293 16.5346 23.2783 16.5346H12.0539C11.1029 16.5346 10.332 15.7637 10.332 14.8127Z" fill="black" style="mix-blend-mode:overlay"/>
<path d="M25.0008 8.27266C25.0008 7.32169 24.2299 6.55078 23.2789 6.55078H19.8352C18.8842 6.55078 18.1133 7.32169 18.1133 8.27266C18.1133 9.22363 18.8842 9.99454 19.8352 9.99454H23.2789C24.2299 9.99454 25.0008 9.22363 25.0008 8.27266Z" fill="#FF0000" style="mix-blend-mode:saturation"/>
<path d="M25.0008 8.27266C25.0008 7.32169 24.2299 6.55078 23.2789 6.55078H19.8352C18.8842 6.55078 18.1133 7.32169 18.1133 8.27266C18.1133 9.22363 18.8842 9.99454 19.8352 9.99454H23.2789C24.2299 9.99454 25.0008 9.22363 25.0008 8.27266Z" fill="white" style="mix-blend-mode:difference"/>
<path d="M25.0008 8.27266C25.0008 7.32169 24.2299 6.55078 23.2789 6.55078H19.8352C18.8842 6.55078 18.1133 7.32169 18.1133 8.27266C18.1133 9.22363 18.8842 9.99454 19.8352 9.99454H23.2789C24.2299 9.99454 25.0008 9.22363 25.0008 8.27266Z" fill="white" style="mix-blend-mode:saturation"/>
<path d="M25.0008 8.27266C25.0008 7.32169 24.2299 6.55078 23.2789 6.55078H19.8352C18.8842 6.55078 18.1133 7.32169 18.1133 8.27266C18.1133 9.22363 18.8842 9.99454 19.8352 9.99454H23.2789C24.2299 9.99454 25.0008 9.22363 25.0008 8.27266Z" fill="white" style="mix-blend-mode:overlay"/>
<path d="M25.0008 8.27266C25.0008 7.32169 24.2299 6.55078 23.2789 6.55078H19.8352C18.8842 6.55078 18.1133 7.32169 18.1133 8.27266C18.1133 9.22363 18.8842 9.99454 19.8352 9.99454H23.2789C24.2299 9.99454 25.0008 9.22363 25.0008 8.27266Z" fill="black" style="mix-blend-mode:overlay"/>
<path d="M25.0008 8.27266C25.0008 7.32169 24.2299 6.55078 23.2789 6.55078H19.8352C18.8842 6.55078 18.1133 7.32169 18.1133 8.27266C18.1133 9.22363 18.8842 9.99454 19.8352 9.99454H23.2789C24.2299 9.99454 25.0008 9.22363 25.0008 8.27266Z" fill="white" style="mix-blend-mode:overlay"/>
<path d="M25.0008 8.27266C25.0008 7.32169 24.2299 6.55078 23.2789 6.55078H19.8352C18.8842 6.55078 18.1133 7.32169 18.1133 8.27266C18.1133 9.22363 18.8842 9.99454 19.8352 9.99454H23.2789C24.2299 9.99454 25.0008 9.22363 25.0008 8.27266Z" fill="black" style="mix-blend-mode:overlay"/>
<path d="M0 14.8127C0 13.8617 0.770912 13.0908 1.72188 13.0908H5.16564C6.11661 13.0908 6.88752 13.8617 6.88752 14.8127C6.88752 15.7637 6.11661 16.5346 5.16564 16.5346H1.72188C0.770913 16.5346 0 15.7637 0 14.8127Z" fill="#FF0000" style="mix-blend-mode:saturation"/>
<path d="M0 14.8127C0 13.8617 0.770912 13.0908 1.72188 13.0908H5.16564C6.11661 13.0908 6.88752 13.8617 6.88752 14.8127C6.88752 15.7637 6.11661 16.5346 5.16564 16.5346H1.72188C0.770913 16.5346 0 15.7637 0 14.8127Z" fill="white" style="mix-blend-mode:difference"/>
<path d="M0 14.8127C0 13.8617 0.770912 13.0908 1.72188 13.0908H5.16564C6.11661 13.0908 6.88752 13.8617 6.88752 14.8127C6.88752 15.7637 6.11661 16.5346 5.16564 16.5346H1.72188C0.770913 16.5346 0 15.7637 0 14.8127Z" fill="white" style="mix-blend-mode:saturation"/>
<path d="M0 14.8127C0 13.8617 0.770912 13.0908 1.72188 13.0908H5.16564C6.11661 13.0908 6.88752 13.8617 6.88752 14.8127C6.88752 15.7637 6.11661 16.5346 5.16564 16.5346H1.72188C0.770913 16.5346 0 15.7637 0 14.8127Z" fill="white" style="mix-blend-mode:overlay"/>
<path d="M0 14.8127C0 13.8617 0.770912 13.0908 1.72188 13.0908H5.16564C6.11661 13.0908 6.88752 13.8617 6.88752 14.8127C6.88752 15.7637 6.11661 16.5346 5.16564 16.5346H1.72188C0.770913 16.5346 0 15.7637 0 14.8127Z" fill="black" style="mix-blend-mode:overlay"/>
<path d="M0 14.8127C0 13.8617 0.770912 13.0908 1.72188 13.0908H5.16564C6.11661 13.0908 6.88752 13.8617 6.88752 14.8127C6.88752 15.7637 6.11661 16.5346 5.16564 16.5346H1.72188C0.770913 16.5346 0 15.7637 0 14.8127Z" fill="white" style="mix-blend-mode:overlay"/>
<path d="M0 14.8127C0 13.8617 0.770912 13.0908 1.72188 13.0908H5.16564C6.11661 13.0908 6.88752 13.8617 6.88752 14.8127C6.88752 15.7637 6.11661 16.5346 5.16564 16.5346H1.72188C0.770913 16.5346 0 15.7637 0 14.8127Z" fill="black" style="mix-blend-mode:overlay"/>
<path d="M13.0859 21.3693C13.0859 20.4184 13.8568 19.6475 14.8078 19.6475H17.064C18.015 19.6475 18.7859 20.4184 18.7859 21.3693C18.7859 22.3203 18.015 23.0912 17.064 23.0912H14.8078C13.8569 23.0912 13.0859 22.3203 13.0859 21.3693Z" fill="#FF0000" style="mix-blend-mode:saturation"/>
<path d="M13.0859 21.3693C13.0859 20.4184 13.8568 19.6475 14.8078 19.6475H17.064C18.015 19.6475 18.7859 20.4184 18.7859 21.3693C18.7859 22.3203 18.015 23.0912 17.064 23.0912H14.8078C13.8569 23.0912 13.0859 22.3203 13.0859 21.3693Z" fill="white" style="mix-blend-mode:difference"/>
<path d="M13.0859 21.3693C13.0859 20.4184 13.8568 19.6475 14.8078 19.6475H17.064C18.015 19.6475 18.7859 20.4184 18.7859 21.3693C18.7859 22.3203 18.015 23.0912 17.064 23.0912H14.8078C13.8569 23.0912 13.0859 22.3203 13.0859 21.3693Z" fill="white" style="mix-blend-mode:saturation"/>
<path d="M13.0859 21.3693C13.0859 20.4184 13.8568 19.6475 14.8078 19.6475H17.064C18.015 19.6475 18.7859 20.4184 18.7859 21.3693C18.7859 22.3203 18.015 23.0912 17.064 23.0912H14.8078C13.8569 23.0912 13.0859 22.3203 13.0859 21.3693Z" fill="white" style="mix-blend-mode:overlay"/>
<path d="M13.0859 21.3693C13.0859 20.4184 13.8568 19.6475 14.8078 19.6475H17.064C18.015 19.6475 18.7859 20.4184 18.7859 21.3693C18.7859 22.3203 18.015 23.0912 17.064 23.0912H14.8078C13.8569 23.0912 13.0859 22.3203 13.0859 21.3693Z" fill="black" style="mix-blend-mode:overlay"/>
<path d="M13.0859 21.3693C13.0859 20.4184 13.8568 19.6475 14.8078 19.6475H17.064C18.015 19.6475 18.7859 20.4184 18.7859 21.3693C18.7859 22.3203 18.015 23.0912 17.064 23.0912H14.8078C13.8569 23.0912 13.0859 22.3203 13.0859 21.3693Z" fill="white" style="mix-blend-mode:overlay"/>
<path d="M13.0859 21.3693C13.0859 20.4184 13.8568 19.6475 14.8078 19.6475H17.064C18.015 19.6475 18.7859 20.4184 18.7859 21.3693C18.7859 22.3203 18.015 23.0912 17.064 23.0912H14.8078C13.8569 23.0912 13.0859 22.3203 13.0859 21.3693Z" fill="black" style="mix-blend-mode:overlay"/>
<path d="M6.20703 21.3693C6.20703 20.4184 6.97794 19.6475 7.92891 19.6475C8.87988 19.6475 9.65079 20.4184 9.65079 21.3693C9.65079 22.3203 8.87988 23.0912 7.92891 23.0912C6.97794 23.0912 6.20703 22.3203 6.20703 21.3693Z" fill="#FF0000" style="mix-blend-mode:saturation"/>
<path d="M6.20703 21.3693C6.20703 20.4184 6.97794 19.6475 7.92891 19.6475C8.87988 19.6475 9.65079 20.4184 9.65079 21.3693C9.65079 22.3203 8.87988 23.0912 7.92891 23.0912C6.97794 23.0912 6.20703 22.3203 6.20703 21.3693Z" fill="white" style="mix-blend-mode:difference"/>
<path d="M6.20703 21.3693C6.20703 20.4184 6.97794 19.6475 7.92891 19.6475C8.87988 19.6475 9.65079 20.4184 9.65079 21.3693C9.65079 22.3203 8.87988 23.0912 7.92891 23.0912C6.97794 23.0912 6.20703 22.3203 6.20703 21.3693Z" fill="white" style="mix-blend-mode:saturation"/>
<path d="M6.20703 21.3693C6.20703 20.4184 6.97794 19.6475 7.92891 19.6475C8.87988 19.6475 9.65079 20.4184 9.65079 21.3693C9.65079 22.3203 8.87988 23.0912 7.92891 23.0912C6.97794 23.0912 6.20703 22.3203 6.20703 21.3693Z" fill="white" style="mix-blend-mode:overlay"/>
<path d="M6.20703 21.3693C6.20703 20.4184 6.97794 19.6475 7.92891 19.6475C8.87988 19.6475 9.65079 20.4184 9.65079 21.3693C9.65079 22.3203 8.87988 23.0912 7.92891 23.0912C6.97794 23.0912 6.20703 22.3203 6.20703 21.3693Z" fill="black" style="mix-blend-mode:overlay"/>
<path d="M6.20703 21.3693C6.20703 20.4184 6.97794 19.6475 7.92891 19.6475C8.87988 19.6475 9.65079 20.4184 9.65079 21.3693C9.65079 22.3203 8.87988 23.0912 7.92891 23.0912C6.97794 23.0912 6.20703 22.3203 6.20703 21.3693Z" fill="white" style="mix-blend-mode:overlay"/>
<path d="M6.20703 21.3693C6.20703 20.4184 6.97794 19.6475 7.92891 19.6475C8.87988 19.6475 9.65079 20.4184 9.65079 21.3693C9.65079 22.3203 8.87988 23.0912 7.92891 23.0912C6.97794 23.0912 6.20703 22.3203 6.20703 21.3693Z" fill="black" style="mix-blend-mode:overlay"/>
</svg>
