<svg width="56" height="56" viewBox="0 0 56 56" fill="none" xmlns="http://www.w3.org/2000/svg">
<path d="M26.9689 5.05906C26.9689 3.3944 25.6194 2.04492 23.9548 2.04492H20.0053C18.3407 2.04492 16.9912 3.3944 16.9912 5.05906C16.9912 6.72372 18.3407 8.07319 20.0053 8.07319H23.9548C25.6194 8.07319 26.9689 6.72372 26.9689 5.05906Z" fill="#F4E654"/>
<path d="M39.0083 5.05906C39.0083 3.3944 37.6588 2.04492 35.9941 2.04492C34.3295 2.04492 32.98 3.3944 32.98 5.05906C32.98 6.72372 34.3295 8.07319 35.9941 8.07319C37.6588 8.07319 39.0083 6.72372 39.0083 5.05906Z" fill="#2D91F3"/>
<path d="M25.0193 27.9995C25.0193 26.3348 23.6698 24.9854 22.0052 24.9854H3.67921C2.01455 24.9854 0.66507 26.3348 0.66507 27.9995C0.66507 29.6641 2.01454 31.0136 3.6792 31.0136H22.0052C23.6698 31.0136 25.0193 29.6641 25.0193 27.9995Z" fill="#2CE798"/>
<path d="M55.3349 27.9995C55.3349 26.3348 53.9855 24.9854 52.3208 24.9854H34.0551C32.3905 24.9854 31.041 26.3348 31.041 27.9995C31.041 29.6641 32.3905 31.0136 34.0551 31.0136H52.3208C53.9855 31.0136 55.3349 29.6641 55.3349 27.9995Z" fill="#E2838C"/>
<path d="M31.8004 16.5288C31.8004 14.8641 30.451 13.5146 28.7863 13.5146H9.13813C7.47347 13.5146 6.12399 14.8641 6.12399 16.5288C6.12399 18.1934 7.47347 19.5429 9.13813 19.5429H28.7863C30.451 19.5429 31.8004 18.1934 31.8004 16.5288Z" fill="#A66BFB"/>
<path d="M24.2093 39.4692C24.2093 37.8046 25.5588 36.4551 27.2235 36.4551H46.8716C48.5363 36.4551 49.8858 37.8046 49.8858 39.4692C49.8858 41.1339 48.5363 42.4833 46.8716 42.4833H27.2235C25.5588 42.4833 24.2093 41.1339 24.2093 39.4692Z" fill="#A66BFB"/>
<path d="M49.886 16.5288C49.886 14.8641 48.5366 13.5146 46.8719 13.5146H40.8436C39.179 13.5146 37.8295 14.8641 37.8295 16.5288C37.8295 18.1934 39.179 19.5429 40.8436 19.5429H46.8719C48.5366 19.5429 49.886 18.1934 49.886 16.5288Z" fill="#2CE798"/>
<path d="M6.12442 39.4692C6.12442 37.8046 7.47389 36.4551 9.13855 36.4551H15.1668C16.8315 36.4551 18.181 37.8046 18.181 39.4692C18.181 41.1339 16.8315 42.4833 15.1668 42.4833H9.13856C7.4739 42.4833 6.12442 41.1339 6.12442 39.4692Z" fill="#E2838C"/>
<path d="M29.0308 50.9409C29.0308 49.2762 30.3803 47.9268 32.0449 47.9268H35.9944C37.659 47.9268 39.0085 49.2762 39.0085 50.9409C39.0085 52.6056 37.659 53.955 35.9944 53.955H32.0449C30.3803 53.955 29.0308 52.6056 29.0308 50.9409Z" fill="#F4E654"/>
<path d="M16.9914 50.9409C16.9914 49.2762 18.3409 47.9268 20.0056 47.9268C21.6702 47.9268 23.0197 49.2762 23.0197 50.9409C23.0197 52.6056 21.6702 53.955 20.0056 53.955C18.3409 53.955 16.9914 52.6056 16.9914 50.9409Z" fill="#2D91F3"/>
</svg>
