<?xml version="1.0" encoding="UTF-8"?>
<svg xmlns="http://www.w3.org/2000/svg" width="40" height="40" viewBox="0 0 40 40" fill="none">
  <rect y="40" width="40" height="40" rx="20" transform="rotate(-90 0 40)" fill="#2D91F3"/>
  <rect x="18.8889" y="30" width="2.77778" height="2.77778" rx="1.38889" transform="rotate(-90 18.8889 30)" fill="#F4E654"/>
  <path d="M14.5735 16.5372C14.065 16.0287 14.0331 15.224 14.478 14.6785L14.5735 14.5732L19.018 10.1288C19.5604 9.5864 20.4396 9.5864 20.9819 10.1288L25.4264 14.5732C25.9688 15.1156 25.9688 15.9948 25.4264 16.5372C24.884 17.0796 24.0048 17.0796 23.4624 16.5372L21.3888 14.4637L21.3888 24.4441C21.3888 25.2112 20.767 25.833 20 25.833C19.2329 25.833 18.6111 25.2112 18.6111 24.4441L18.6111 14.4637L16.5375 16.5372L16.4322 16.6327C15.8867 17.0777 15.082 17.0457 14.5735 16.5372Z" fill="white"/>
</svg> 