<svg width="1376" height="202" viewBox="0 0 1376 202" fill="none" xmlns="http://www.w3.org/2000/svg">
<path d="M4.176 76V40.288C4.176 37.552 4.824 35.08 6.12 32.872C7.464 30.664 9.24 28.912 11.448 27.616C13.704 26.272 16.176 25.6 18.864 25.6H37.08V34.672H20.016C18.48 34.672 17.16 35.224 16.056 36.328C15 37.432 14.472 38.752 14.472 40.288V48.424H34.632V57.496H14.472V76H4.176ZM41.7459 76V49.72C41.7459 46.456 42.6579 43.912 44.4819 42.088C46.3539 40.216 48.9219 39.28 52.1859 39.28H62.3379V47.704H53.9139C53.2899 47.704 52.7379 47.92 52.2579 48.352C51.8259 48.784 51.6099 49.336 51.6099 50.008V76H41.7459ZM83.25 76.864C79.458 76.864 76.074 76.024 73.098 74.344C70.122 72.616 67.77 70.312 66.042 67.432C64.314 64.504 63.45 61.24 63.45 57.64C63.45 54.04 64.314 50.8 66.042 47.92C67.77 44.992 70.122 42.688 73.098 41.008C76.074 39.28 79.458 38.416 83.25 38.416C87.042 38.416 90.426 39.28 93.402 41.008C96.378 42.688 98.73 44.992 100.458 47.92C102.186 50.8 103.05 54.04 103.05 57.64C103.05 61.24 102.186 64.504 100.458 67.432C98.73 70.312 96.378 72.616 93.402 74.344C90.426 76.024 87.042 76.864 83.25 76.864ZM83.25 68.44C85.266 68.44 86.994 67.96 88.434 67C89.922 66.04 91.05 64.744 91.818 63.112C92.634 61.48 93.042 59.656 93.042 57.64C93.042 55.624 92.634 53.8 91.818 52.168C91.05 50.536 89.922 49.24 88.434 48.28C86.994 47.32 85.266 46.84 83.25 46.84C81.234 46.84 79.482 47.32 77.994 48.28C76.554 49.24 75.426 50.536 74.61 52.168C73.842 53.8 73.458 55.624 73.458 57.64C73.458 59.656 73.842 61.48 74.61 63.112C75.426 64.744 76.554 66.04 77.994 67C79.482 67.96 81.234 68.44 83.25 68.44ZM108.098 76V54.184C108.098 51.304 108.794 48.664 110.186 46.264C111.578 43.864 113.57 41.968 116.162 40.576C118.802 39.136 121.97 38.416 125.666 38.416C127.442 38.416 129.074 38.632 130.562 39.064C132.098 39.448 133.514 40.024 134.81 40.792C136.106 41.56 137.234 42.472 138.194 43.528H138.266C139.274 42.472 140.426 41.56 141.722 40.792C143.018 40.024 144.434 39.448 145.97 39.064C147.506 38.632 149.162 38.416 150.938 38.416C154.634 38.416 157.778 39.136 160.37 40.576C163.01 41.968 165.026 43.864 166.418 46.264C167.81 48.664 168.506 51.304 168.506 54.184V76H158.642V54.184C158.642 52.84 158.282 51.616 157.562 50.512C156.89 49.408 155.978 48.52 154.826 47.848C153.674 47.176 152.378 46.84 150.938 46.84C149.546 46.84 148.25 47.176 147.05 47.848C145.898 48.52 144.962 49.408 144.242 50.512C143.57 51.616 143.234 52.84 143.234 54.184V76H133.37V54.184C133.37 52.84 133.01 51.616 132.29 50.512C131.618 49.408 130.706 48.52 129.554 47.848C128.402 47.176 127.106 46.84 125.666 46.84C124.274 46.84 122.978 47.176 121.778 47.848C120.626 48.52 119.69 49.408 118.97 50.512C118.298 51.616 117.962 52.84 117.962 54.184V76H108.098ZM192.583 76V39.28H202.519V76H192.583ZM197.551 34.888C195.871 34.888 194.407 34.288 193.159 33.088C191.959 31.84 191.359 30.376 191.359 28.696C191.359 27.016 191.959 25.576 193.159 24.376C194.407 23.128 195.871 22.504 197.551 22.504C199.231 22.504 200.671 23.128 201.871 24.376C203.119 25.576 203.743 27.016 203.743 28.696C203.743 30.376 203.119 31.84 201.871 33.088C200.671 34.288 199.231 34.888 197.551 34.888ZM226.826 76.864C223.754 76.864 220.994 76.384 218.546 75.424C216.146 74.416 214.13 73.024 212.498 71.248C210.866 69.424 209.618 67.312 208.754 64.912C207.89 62.464 207.458 59.8 207.458 56.92C207.458 53.272 208.178 50.08 209.618 47.344C211.106 44.56 213.17 42.376 215.81 40.792C218.498 39.208 221.618 38.416 225.17 38.416C226.706 38.416 228.17 38.632 229.562 39.064C231.002 39.496 232.298 40.12 233.45 40.936C234.602 41.752 235.538 42.712 236.258 43.816H236.33V23.44H246.194V56.92C246.194 60.952 245.402 64.48 243.818 67.504C242.234 70.48 240.002 72.784 237.122 74.416C234.242 76.048 230.81 76.864 226.826 76.864ZM226.826 68.44C228.794 68.44 230.474 67.96 231.866 67C233.258 66.04 234.314 64.744 235.034 63.112C235.802 61.48 236.186 59.656 236.186 57.64C236.186 55.624 235.802 53.8 235.034 52.168C234.314 50.536 233.258 49.24 231.866 48.28C230.474 47.32 228.794 46.84 226.826 46.84C224.906 46.84 223.226 47.32 221.786 48.28C220.394 49.24 219.314 50.536 218.546 52.168C217.826 53.8 217.466 55.624 217.466 57.64C217.466 59.656 217.826 61.48 218.546 63.112C219.314 64.744 220.394 66.04 221.786 67C223.226 67.96 224.906 68.44 226.826 68.44ZM271.525 76C267.349 76 263.701 75.208 260.581 73.624C257.509 71.992 255.109 69.784 253.381 67C251.701 64.216 250.861 61.096 250.861 57.64C250.861 53.752 251.653 50.368 253.237 47.488C254.821 44.608 256.981 42.376 259.717 40.792C262.453 39.208 265.549 38.416 269.005 38.416C273.133 38.416 276.469 39.28 279.013 41.008C281.605 42.736 283.501 45.064 284.701 47.992C285.901 50.872 286.501 54.088 286.501 57.64C286.501 58.12 286.477 58.696 286.429 59.368C286.381 59.992 286.309 60.472 286.213 60.808H261.373C261.757 62.296 262.405 63.544 263.317 64.552C264.277 65.56 265.453 66.328 266.845 66.856C268.285 67.336 269.893 67.576 271.669 67.576H281.893V76H271.525ZM261.301 54.184H276.637C276.541 53.272 276.373 52.432 276.133 51.664C275.893 50.848 275.557 50.128 275.125 49.504C274.693 48.88 274.189 48.352 273.613 47.92C273.037 47.488 272.365 47.152 271.597 46.912C270.829 46.672 269.989 46.552 269.077 46.552C267.877 46.552 266.797 46.768 265.837 47.2C264.925 47.632 264.157 48.208 263.533 48.928C262.909 49.648 262.405 50.464 262.021 51.376C261.685 52.288 261.445 53.224 261.301 54.184ZM305.763 76.864C302.403 76.864 299.475 76 296.979 74.272C294.483 72.544 292.539 70.24 291.147 67.36C289.803 64.432 289.131 61.216 289.131 57.712C289.131 54.112 289.899 50.848 291.435 47.92C293.019 44.992 295.275 42.688 298.203 41.008C301.131 39.28 304.635 38.416 308.715 38.416C312.843 38.416 316.323 39.28 319.155 41.008C321.987 42.736 324.147 45.064 325.635 47.992C327.123 50.92 327.867 54.16 327.867 57.712V76H318.003V69.88H317.859C317.139 71.176 316.227 72.352 315.123 73.408C314.067 74.464 312.771 75.304 311.235 75.928C309.699 76.552 307.875 76.864 305.763 76.864ZM308.571 68.44C310.491 68.44 312.147 67.96 313.539 67C314.931 66.04 315.987 64.744 316.707 63.112C317.475 61.432 317.859 59.584 317.859 57.568C317.859 55.552 317.475 53.752 316.707 52.168C315.987 50.536 314.931 49.24 313.539 48.28C312.147 47.32 310.491 46.84 308.571 46.84C306.603 46.84 304.899 47.32 303.459 48.28C302.067 49.24 300.987 50.536 300.219 52.168C299.499 53.752 299.139 55.552 299.139 57.568C299.139 59.584 299.499 61.432 300.219 63.112C300.987 64.744 302.067 66.04 303.459 67C304.899 67.96 306.603 68.44 308.571 68.44ZM364.683 76C361.419 76 358.851 75.064 356.979 73.192C355.155 71.32 354.243 68.776 354.243 65.56V30.064H364.107V65.272C364.107 65.896 364.323 66.448 364.755 66.928C365.235 67.36 365.787 67.576 366.411 67.576H374.403V76H364.683ZM347.979 47.704V39.28H374.403V47.704H347.979ZM396.037 76.864C392.245 76.864 388.861 76.024 385.885 74.344C382.909 72.616 380.557 70.312 378.829 67.432C377.101 64.504 376.237 61.24 376.237 57.64C376.237 54.04 377.101 50.8 378.829 47.92C380.557 44.992 382.909 42.688 385.885 41.008C388.861 39.28 392.245 38.416 396.037 38.416C399.829 38.416 403.213 39.28 406.189 41.008C409.165 42.688 411.517 44.992 413.245 47.92C414.973 50.8 415.837 54.04 415.837 57.64C415.837 61.24 414.973 64.504 413.245 67.432C411.517 70.312 409.165 72.616 406.189 74.344C403.213 76.024 399.829 76.864 396.037 76.864ZM396.037 68.44C398.053 68.44 399.781 67.96 401.221 67C402.709 66.04 403.837 64.744 404.605 63.112C405.421 61.48 405.829 59.656 405.829 57.64C405.829 55.624 405.421 53.8 404.605 52.168C403.837 50.536 402.709 49.24 401.221 48.28C399.781 47.32 398.053 46.84 396.037 46.84C394.021 46.84 392.269 47.32 390.781 48.28C389.341 49.24 388.213 50.536 387.397 52.168C386.629 53.8 386.245 55.624 386.245 57.64C386.245 59.656 386.629 61.48 387.397 63.112C388.213 64.744 389.341 66.04 390.781 67C392.269 67.96 394.021 68.44 396.037 68.44ZM452.252 76C449.276 76 446.66 75.328 444.404 73.984C442.148 72.592 440.396 70.768 439.148 68.512C437.9 66.208 437.276 63.688 437.276 60.952V25.6H447.572V62.176C447.572 63.472 448.028 64.6 448.94 65.56C449.852 66.472 450.956 66.928 452.252 66.928H465.572V76H452.252ZM483.982 76.864C480.622 76.864 477.694 76 475.198 74.272C472.702 72.544 470.758 70.24 469.366 67.36C468.022 64.432 467.35 61.216 467.35 57.712C467.35 54.112 468.118 50.848 469.654 47.92C471.238 44.992 473.494 42.688 476.422 41.008C479.35 39.28 482.854 38.416 486.934 38.416C491.062 38.416 494.542 39.28 497.374 41.008C500.206 42.736 502.366 45.064 503.854 47.992C505.342 50.92 506.086 54.16 506.086 57.712V76H496.222V69.88H496.078C495.358 71.176 494.446 72.352 493.342 73.408C492.286 74.464 490.99 75.304 489.454 75.928C487.918 76.552 486.094 76.864 483.982 76.864ZM486.79 68.44C488.71 68.44 490.366 67.96 491.758 67C493.15 66.04 494.206 64.744 494.926 63.112C495.694 61.432 496.078 59.584 496.078 57.568C496.078 55.552 495.694 53.752 494.926 52.168C494.206 50.536 493.15 49.24 491.758 48.28C490.366 47.32 488.71 46.84 486.79 46.84C484.822 46.84 483.118 47.32 481.678 48.28C480.286 49.24 479.206 50.536 478.438 52.168C477.718 53.752 477.358 55.552 477.358 57.568C477.358 59.584 477.718 61.432 478.438 63.112C479.206 64.744 480.286 66.04 481.678 67C483.118 67.96 484.822 68.44 486.79 68.44ZM531.192 76.864C527.448 76.864 524.232 76.12 521.544 74.632C518.856 73.144 516.792 71.152 515.352 68.656C513.96 66.16 513.264 63.4 513.264 60.376V39.28H523.128V60.376C523.128 61.864 523.488 63.232 524.208 64.48C524.928 65.68 525.888 66.64 527.088 67.36C528.336 68.08 529.704 68.44 531.192 68.44C532.68 68.44 534.024 68.08 535.224 67.36C536.472 66.64 537.456 65.68 538.176 64.48C538.896 63.232 539.256 61.864 539.256 60.376V39.28H549.12V60.376C549.12 63.4 548.4 66.16 546.96 68.656C545.568 71.152 543.528 73.144 540.84 74.632C538.2 76.12 534.984 76.864 531.192 76.864ZM556.315 76V54.904C556.315 51.88 557.011 49.12 558.403 46.624C559.843 44.128 561.907 42.136 564.595 40.648C567.283 39.16 570.499 38.416 574.243 38.416C578.035 38.416 581.251 39.16 583.891 40.648C586.579 42.136 588.619 44.128 590.011 46.624C591.451 49.12 592.171 51.88 592.171 54.904V76H582.307V54.904C582.307 53.416 581.947 52.072 581.227 50.872C580.507 49.624 579.523 48.64 578.275 47.92C577.075 47.2 575.731 46.84 574.243 46.84C572.755 46.84 571.387 47.2 570.139 47.92C568.939 48.64 567.979 49.624 567.259 50.872C566.539 52.072 566.179 53.416 566.179 54.904V76H556.315ZM617.006 76C613.214 76 609.83 75.184 606.854 73.552C603.878 71.92 601.526 69.736 599.798 67C598.07 64.216 597.206 61.096 597.206 57.64C597.206 54.184 598.07 51.088 599.798 48.352C601.526 45.568 603.878 43.36 606.854 41.728C609.83 40.096 613.214 39.28 617.006 39.28H621.614V47.704H617.006C614.99 47.704 613.238 48.136 611.75 49C610.31 49.864 609.182 51.064 608.366 52.6C607.598 54.088 607.214 55.768 607.214 57.64C607.214 59.512 607.598 61.216 608.366 62.752C609.182 64.24 610.31 65.416 611.75 66.28C613.238 67.144 614.99 67.576 617.006 67.576H621.614V76H617.006ZM626.316 76V23.44H636.18V41.872C637.716 40.624 639.372 39.736 641.148 39.208C642.924 38.68 644.676 38.416 646.404 38.416C649.956 38.416 652.884 39.16 655.188 40.648C657.54 42.136 659.292 44.128 660.444 46.624C661.596 49.12 662.172 51.88 662.172 54.904V76H652.308V54.904C652.308 53.416 651.948 52.072 651.228 50.872C650.508 49.624 649.524 48.64 648.276 47.92C647.076 47.2 645.732 46.84 644.244 46.84C642.804 46.84 641.46 47.2 640.212 47.92C639.012 48.592 638.028 49.528 637.26 50.728C636.54 51.88 636.18 53.176 636.18 54.616V76H626.316ZM686.261 76V39.28H696.197V76H686.261ZM691.229 34.888C689.549 34.888 688.085 34.288 686.837 33.088C685.637 31.84 685.037 30.376 685.037 28.696C685.037 27.016 685.637 25.576 686.837 24.376C688.085 23.128 689.549 22.504 691.229 22.504C692.909 22.504 694.349 23.128 695.549 24.376C696.797 25.576 697.421 27.016 697.421 28.696C697.421 30.376 696.797 31.84 695.549 33.088C694.349 34.288 692.909 34.888 691.229 34.888ZM703.297 76V54.904C703.297 51.88 703.993 49.12 705.385 46.624C706.825 44.128 708.889 42.136 711.577 40.648C714.265 39.16 717.481 38.416 721.225 38.416C725.017 38.416 728.233 39.16 730.873 40.648C733.561 42.136 735.601 44.128 736.993 46.624C738.433 49.12 739.153 51.88 739.153 54.904V76H729.289V54.904C729.289 53.416 728.929 52.072 728.209 50.872C727.489 49.624 726.505 48.64 725.257 47.92C724.057 47.2 722.713 46.84 721.225 46.84C719.737 46.84 718.369 47.2 717.121 47.92C715.921 48.64 714.961 49.624 714.241 50.872C713.521 52.072 713.161 53.416 713.161 54.904V76H703.297ZM763.602 76V25.6H780.594C785.97 25.6 790.626 26.68 794.562 28.84C798.498 31 801.546 33.976 803.706 37.768C805.914 41.56 807.018 45.904 807.018 50.8C807.018 55.696 805.914 60.04 803.706 63.832C801.546 67.624 798.498 70.6 794.562 72.76C790.626 74.92 785.97 76 780.594 76H763.602ZM773.898 66.928H780.594C783.714 66.928 786.474 66.28 788.874 64.984C791.322 63.688 793.242 61.84 794.634 59.44C796.026 56.992 796.722 54.112 796.722 50.8C796.722 47.44 796.026 44.56 794.634 42.16C793.242 39.76 791.322 37.912 788.874 36.616C786.474 35.32 783.714 34.672 780.594 34.672H773.898V66.928ZM826.179 76.864C822.819 76.864 819.891 76 817.395 74.272C814.899 72.544 812.955 70.24 811.563 67.36C810.219 64.432 809.547 61.216 809.547 57.712C809.547 54.112 810.315 50.848 811.851 47.92C813.435 44.992 815.691 42.688 818.619 41.008C821.547 39.28 825.051 38.416 829.131 38.416C833.259 38.416 836.739 39.28 839.571 41.008C842.403 42.736 844.563 45.064 846.051 47.992C847.539 50.92 848.283 54.16 848.283 57.712V76H838.419V69.88H838.275C837.555 71.176 836.643 72.352 835.539 73.408C834.483 74.464 833.187 75.304 831.651 75.928C830.115 76.552 828.291 76.864 826.179 76.864ZM828.987 68.44C830.907 68.44 832.563 67.96 833.955 67C835.347 66.04 836.403 64.744 837.123 63.112C837.891 61.432 838.275 59.584 838.275 57.568C838.275 55.552 837.891 53.752 837.123 52.168C836.403 50.536 835.347 49.24 833.955 48.28C832.563 47.32 830.907 46.84 828.987 46.84C827.019 46.84 825.315 47.32 823.875 48.28C822.483 49.24 821.403 50.536 820.635 52.168C819.915 53.752 819.555 55.552 819.555 57.568C819.555 59.584 819.915 61.432 820.635 63.112C821.403 64.744 822.483 66.04 823.875 67C825.315 67.96 827.019 68.44 828.987 68.44ZM868.565 90.616V76.36C865.781 75.784 863.405 74.728 861.437 73.192C859.517 71.656 858.029 69.784 856.973 67.576C855.965 65.32 855.461 62.92 855.461 60.376V39.28H865.325V60.376C865.325 61.864 865.685 63.232 866.405 64.48C867.125 65.68 868.085 66.64 869.285 67.36C870.533 68.08 871.901 68.44 873.389 68.44C874.877 68.44 876.221 68.08 877.421 67.36C878.669 66.64 879.653 65.68 880.373 64.48C881.093 63.232 881.453 61.864 881.453 60.376V39.28H891.317V60.376C891.317 62.92 890.813 65.296 889.805 67.504C888.797 69.664 887.333 71.536 885.413 73.12C883.493 74.656 881.165 75.712 878.429 76.288V90.616H868.565ZM898.656 76V67.576H916.584C917.16 67.576 917.664 67.456 918.096 67.216C918.576 66.976 918.936 66.64 919.176 66.208C919.464 65.776 919.608 65.296 919.608 64.768C919.608 64.192 919.464 63.688 919.176 63.256C918.936 62.824 918.576 62.488 918.096 62.248C917.664 61.96 917.16 61.816 916.584 61.816H909.672C907.32 61.816 905.184 61.456 903.264 60.736C901.392 59.968 899.88 58.768 898.728 57.136C897.624 55.456 897.072 53.272 897.072 50.584C897.072 48.52 897.576 46.648 898.584 44.968C899.64 43.24 901.032 41.872 902.76 40.864C904.536 39.808 906.48 39.28 908.592 39.28H925.8V47.704H909.528C908.808 47.704 908.16 47.944 907.584 48.424C907.056 48.904 906.792 49.528 906.792 50.296C906.792 51.064 907.056 51.712 907.584 52.24C908.112 52.72 908.76 52.96 909.528 52.96H916.44C919.08 52.96 921.36 53.368 923.28 54.184C925.2 54.952 926.688 56.176 927.744 57.856C928.8 59.536 929.328 61.744 929.328 64.48C929.328 66.592 928.8 68.536 927.744 70.312C926.688 72.04 925.272 73.432 923.496 74.488C921.72 75.496 919.728 76 917.52 76H898.656ZM933.587 87.304L937.331 76.36C935.891 75.832 934.811 74.968 934.091 73.768C933.419 72.52 933.083 71.272 933.083 70.024C933.083 68.2 933.731 66.664 935.027 65.416C936.371 64.12 937.955 63.472 939.779 63.472C941.843 63.472 943.475 64.168 944.675 65.56C945.875 66.952 946.475 68.584 946.475 70.456C946.475 71.752 946.355 72.952 946.115 74.056C945.923 75.112 945.563 76.36 945.035 77.8L941.795 87.304H933.587ZM39.024 177.864C36.048 177.864 33.432 177.192 31.176 175.848C28.92 174.456 27.168 172.632 25.92 170.376C24.672 168.072 24.048 165.552 24.048 162.816V139.56C24.048 138.696 23.832 137.904 23.4 137.184C22.968 136.464 22.392 135.888 21.672 135.456C20.952 135.024 20.16 134.808 19.296 134.808C18.432 134.808 17.64 135.024 16.92 135.456C16.248 135.888 15.696 136.464 15.264 137.184C14.832 137.904 14.616 138.696 14.616 139.56V177H4.32V140.784C4.32 138 4.944 135.48 6.192 133.224C7.44 130.968 9.192 129.168 11.448 127.824C13.704 126.432 16.32 125.736 19.296 125.736C22.32 125.736 24.96 126.432 27.216 127.824C29.472 129.168 31.224 130.968 32.472 133.224C33.72 135.48 34.344 138 34.344 140.784V164.04C34.344 164.904 34.56 165.696 34.992 166.416C35.424 167.136 35.976 167.712 36.648 168.144C37.368 168.576 38.16 168.792 39.024 168.792C39.888 168.792 40.68 168.576 41.4 168.144C42.12 167.712 42.696 167.136 43.128 166.416C43.56 165.696 43.776 164.904 43.776 164.04V126.6H54.072V162.816C54.072 165.552 53.448 168.072 52.2 170.376C50.952 172.632 49.2 174.456 46.944 175.848C44.688 177.192 42.048 177.864 39.024 177.864ZM78.5194 177.864C74.7274 177.864 71.3434 177.024 68.3674 175.344C65.3914 173.616 63.0394 171.312 61.3114 168.432C59.5834 165.504 58.7194 162.24 58.7194 158.64C58.7194 155.04 59.5834 151.8 61.3114 148.92C63.0394 145.992 65.3914 143.688 68.3674 142.008C71.3434 140.28 74.7274 139.416 78.5194 139.416C82.3114 139.416 85.6954 140.28 88.6714 142.008C91.6474 143.688 93.9994 145.992 95.7274 148.92C97.4554 151.8 98.3194 155.04 98.3194 158.64C98.3194 162.24 97.4554 165.504 95.7274 168.432C93.9994 171.312 91.6474 173.616 88.6714 175.344C85.6954 177.024 82.3114 177.864 78.5194 177.864ZM78.5194 169.44C80.5354 169.44 82.2634 168.96 83.7034 168C85.1914 167.04 86.3194 165.744 87.0874 164.112C87.9034 162.48 88.3114 160.656 88.3114 158.64C88.3114 156.624 87.9034 154.8 87.0874 153.168C86.3194 151.536 85.1914 150.24 83.7034 149.28C82.2634 148.32 80.5354 147.84 78.5194 147.84C76.5034 147.84 74.7514 148.32 73.2634 149.28C71.8234 150.24 70.6954 151.536 69.8794 153.168C69.1114 154.8 68.7274 156.624 68.7274 158.64C68.7274 160.656 69.1114 162.48 69.8794 164.112C70.6954 165.744 71.8234 167.04 73.2634 168C74.7514 168.96 76.5034 169.44 78.5194 169.44ZM114.706 177C111.442 177 108.874 176.064 107.002 174.192C105.178 172.32 104.266 169.776 104.266 166.56V131.064H114.13V166.272C114.13 166.896 114.346 167.448 114.778 167.928C115.258 168.36 115.81 168.576 116.434 168.576H124.426V177H114.706ZM98.0016 148.704V140.28H124.426V148.704H98.0016ZM181.064 177.792C178.232 177.792 175.664 177.144 173.36 175.848C171.104 174.552 169.328 172.776 168.032 170.52C166.736 168.264 166.088 165.672 166.088 162.744V139.56C166.088 138.696 165.872 137.904 165.44 137.184C165.008 136.464 164.432 135.888 163.712 135.456C162.992 135.024 162.2 134.808 161.336 134.808C160.472 134.808 159.68 135.024 158.96 135.456C158.288 135.888 157.736 136.464 157.304 137.184C156.872 137.904 156.656 138.696 156.656 139.56V177H146.36V140.784C146.36 138 146.984 135.48 148.232 133.224C149.48 130.968 151.232 129.168 153.488 127.824C155.744 126.432 158.36 125.736 161.336 125.736C164.36 125.736 167 126.432 169.256 127.824C171.512 129.168 173.264 130.968 174.512 133.224C175.76 135.48 176.384 138 176.384 140.784V163.968C176.384 164.832 176.6 165.624 177.032 166.344C177.464 167.064 178.016 167.64 178.688 168.072C179.408 168.504 180.2 168.72 181.064 168.72C181.928 168.72 182.72 168.504 183.44 168.072C184.16 167.64 184.736 167.064 185.168 166.344C185.6 165.624 185.816 164.832 185.816 163.968V140.784C185.816 138 186.44 135.48 187.688 133.224C188.936 130.968 190.688 129.168 192.944 127.824C195.248 126.432 197.888 125.736 200.864 125.736C203.888 125.736 206.504 126.432 208.712 127.824C210.968 129.168 212.72 130.968 213.968 133.224C215.216 135.48 215.84 138 215.84 140.784V177H205.544V139.56C205.544 138.696 205.328 137.904 204.896 137.184C204.512 136.464 203.96 135.888 203.24 135.456C202.52 135.024 201.728 134.808 200.864 134.808C200 134.808 199.208 135.024 198.488 135.456C197.768 135.888 197.192 136.464 196.76 137.184C196.328 137.904 196.112 138.696 196.112 139.56V162.744C196.112 165.672 195.44 168.264 194.096 170.52C192.8 172.776 191.024 174.552 188.768 175.848C186.512 177.144 183.944 177.792 181.064 177.792ZM240.317 177.864C236.525 177.864 233.141 177.024 230.165 175.344C227.189 173.616 224.837 171.312 223.109 168.432C221.381 165.504 220.517 162.24 220.517 158.64C220.517 155.04 221.381 151.8 223.109 148.92C224.837 145.992 227.189 143.688 230.165 142.008C233.141 140.28 236.525 139.416 240.317 139.416C244.109 139.416 247.493 140.28 250.469 142.008C253.445 143.688 255.797 145.992 257.525 148.92C259.253 151.8 260.117 155.04 260.117 158.64C260.117 162.24 259.253 165.504 257.525 168.432C255.797 171.312 253.445 173.616 250.469 175.344C247.493 177.024 244.109 177.864 240.317 177.864ZM240.317 169.44C242.333 169.44 244.061 168.96 245.501 168C246.989 167.04 248.117 165.744 248.885 164.112C249.701 162.48 250.109 160.656 250.109 158.64C250.109 156.624 249.701 154.8 248.885 153.168C248.117 151.536 246.989 150.24 245.501 149.28C244.061 148.32 242.333 147.84 240.317 147.84C238.301 147.84 236.549 148.32 235.061 149.28C233.621 150.24 232.493 151.536 231.677 153.168C230.909 154.8 230.525 156.624 230.525 158.64C230.525 160.656 230.909 162.48 231.677 164.112C232.493 165.744 233.621 167.04 235.061 168C236.549 168.96 238.301 169.44 240.317 169.44ZM265.165 177V155.904C265.165 152.88 265.861 150.12 267.253 147.624C268.693 145.128 270.757 143.136 273.445 141.648C276.133 140.16 279.349 139.416 283.093 139.416C286.885 139.416 290.101 140.16 292.741 141.648C295.429 143.136 297.469 145.128 298.861 147.624C300.301 150.12 301.021 152.88 301.021 155.904V177H291.157V155.904C291.157 154.416 290.797 153.072 290.077 151.872C289.357 150.624 288.373 149.64 287.125 148.92C285.925 148.2 284.581 147.84 283.093 147.84C281.605 147.84 280.237 148.2 278.989 148.92C277.789 149.64 276.829 150.624 276.109 151.872C275.389 153.072 275.029 154.416 275.029 155.904V177H265.165ZM320.96 177C317.696 177 315.128 176.064 313.256 174.192C311.432 172.32 310.52 169.776 310.52 166.56V131.064H320.384V166.272C320.384 166.896 320.6 167.448 321.032 167.928C321.512 168.36 322.064 168.576 322.688 168.576H330.68V177H320.96ZM304.256 148.704V140.28H330.68V148.704H304.256ZM336.08 177V124.44H345.944V142.872C347.48 141.624 349.136 140.736 350.912 140.208C352.688 139.68 354.44 139.416 356.168 139.416C359.72 139.416 362.648 140.16 364.952 141.648C367.304 143.136 369.056 145.128 370.208 147.624C371.36 150.12 371.936 152.88 371.936 155.904V177H362.072V155.904C362.072 154.416 361.712 153.072 360.992 151.872C360.272 150.624 359.288 149.64 358.04 148.92C356.84 148.2 355.496 147.84 354.008 147.84C352.568 147.84 351.224 148.2 349.976 148.92C348.776 149.592 347.792 150.528 347.024 151.728C346.304 152.88 345.944 154.176 345.944 155.616V177H336.08ZM379.275 177V168.576H397.203C397.779 168.576 398.283 168.456 398.715 168.216C399.195 167.976 399.555 167.64 399.795 167.208C400.083 166.776 400.227 166.296 400.227 165.768C400.227 165.192 400.083 164.688 399.795 164.256C399.555 163.824 399.195 163.488 398.715 163.248C398.283 162.96 397.779 162.816 397.203 162.816H390.291C387.939 162.816 385.803 162.456 383.883 161.736C382.011 160.968 380.499 159.768 379.347 158.136C378.243 156.456 377.691 154.272 377.691 151.584C377.691 149.52 378.195 147.648 379.203 145.968C380.259 144.24 381.651 142.872 383.379 141.864C385.155 140.808 387.099 140.28 389.211 140.28H406.419V148.704H390.147C389.427 148.704 388.779 148.944 388.203 149.424C387.675 149.904 387.411 150.528 387.411 151.296C387.411 152.064 387.675 152.712 388.203 153.24C388.731 153.72 389.379 153.96 390.147 153.96H397.059C399.699 153.96 401.979 154.368 403.899 155.184C405.819 155.952 407.307 157.176 408.363 158.856C409.419 160.536 409.947 162.744 409.947 165.48C409.947 167.592 409.419 169.536 408.363 171.312C407.307 173.04 405.891 174.432 404.115 175.488C402.339 176.496 400.347 177 398.139 177H379.275ZM420.398 177.864C418.574 177.864 416.99 177.216 415.646 175.92C414.35 174.576 413.702 172.992 413.702 171.168C413.702 169.344 414.35 167.784 415.646 166.488C416.99 165.144 418.574 164.472 420.398 164.472C422.222 164.472 423.782 165.144 425.078 166.488C426.422 167.784 427.094 169.344 427.094 171.168C427.094 172.368 426.782 173.496 426.158 174.552C425.582 175.56 424.79 176.376 423.782 177C422.774 177.576 421.646 177.864 420.398 177.864Z" fill="#2C2C2C"/>
<rect x="684" y="20" width="15" height="15" rx="7.5" fill="#2D91F3"/>
<rect x="190" y="20" width="15" height="15" rx="7.5" fill="#F4E654"/>
<rect y="153" width="434" height="6" rx="3" fill="#2C2C2C"/>
</svg>
